<svg id="double-checking" xmlns="http://www.w3.org/2000/svg" width="18.138" height="9.628" viewBox="0 0 18.138 9.628">
  <path id="Path_3" data-name="Path 3" d="M17.588,50.958a1.887,1.887,0,0,0-2.665,0L10.4,55.485l-.288-.288,1.574-1.574a.645.645,0,0,0,.043-.048,1.883,1.883,0,0,0-2.708-2.617L4.49,55.485,3.217,54.211A1.884,1.884,0,0,0,.532,56.853l.02.022,2.6,2.6,0,0a1.884,1.884,0,0,0,2.665,0h0l1.621-1.621,1.617,1.617,0,0a1.884,1.884,0,0,0,2.665,0l5.859-5.859a.645.645,0,0,0,.043-.048A1.885,1.885,0,0,0,17.588,50.958ZM1.447,55.106a.619.619,0,0,1,.874,0l1.722,1.722c.015.015.032.03.048.043a.633.633,0,0,0,.8,0,.644.644,0,0,0,.048-.043l4.974-4.974a.618.618,0,0,1,.874.874L4.928,58.586a.618.618,0,0,1-.874,0L1.447,55.98h0a.618.618,0,0,1,0-.874Zm7.765.986.736.736a.633.633,0,0,0,.9,0l4.975-4.974a.618.618,0,0,1,.874.874l-5.859,5.859a.618.618,0,0,1-.874,0L8.339,56.966Z" transform="translate(0 -50.406)" fill="#4b4bd8"/>
</svg>
